<svg width="18" height="20" viewBox="0 0 18 20" fill="none" xmlns="http://www.w3.org/2000/svg">
<path d="M13.975 0.375H7.8C5.9125 0.375 4.375 1.9125 4.375 3.8V6.25H6.125V3.8C6.125 2.875 6.875 2.125 7.8 2.125H13.975C14.9 2.125 15.65 2.875 15.65 3.8V16.1875C15.65 17.1125 14.9 17.8625 13.975 17.8625H7.8C6.875 17.8625 6.125 17.1125 6.125 16.1875V13.75H4.375V16.2C4.375 18.0875 5.9125 19.625 7.8 19.625H13.975C15.8625 19.625 17.4 18.0875 17.4 16.2V3.8C17.4 1.9125 15.8625 0.375 13.975 0.375ZM9 15L14 10L9 5V9.125H0.25V10.875H9V15Z" fill="#484848"/>
</svg>
